# xmcd CD database file
#
# Track frame offsets:
#	180
#	10206
#	16187
#	27195
#	42087
#	56133
#	65705
#	80800
#	94664
#	113882
#	135007
#	141950
#	159364
#	167111
#	182901
#
# Disc length: 2502 seconds
#
# Revision: 2
# Processed by: cddbd v1.5.2PL0 Copyright (c) Steve Scherf et al.
# Submitted via: CDex 1.51
#
DISCID=c109c40f
DTITLE=Buddy Wasisname and the Other Fellers - Nods 'n Winks
DYEAR=1988
DGENRE=Humor
TTITLE0=We're Buddy Wasisname and the Other Fellers
TTITLE1=Island Wanderer
TTITLE2=Going Out The Bay
TTITLE3=Nods 'n Winks
TTITLE4=Mr. McGuire Sit Down
TTITLE5=Newfoundland Dictionary
TTITLE6=Swearing Song
TTITLE7=Baccy Song
TTITLE8=My Old Wooden Shack
TTITLE9=Old Time Religion
TTITLE10=L'il Johnny Wimple
TTITLE11=This Old Man - Twiggle Toes Hornpipe
TTITLE12=Uncle Lo's Breakdown
TTITLE13=Down By The Ocean
TTITLE14=Island Wanderer (Reprise)
EXTD=YEAR: 1988
EXTT0=
EXTT1=
EXTT2=
EXTT3=
EXTT4=
EXTT5=
EXTT6=
EXTT7=
EXTT8=
EXTT9=
EXTT10=
EXTT11=
EXTT12=
EXTT13=
EXTT14=
PLAYORDER=
